<svg width="15" height="14" viewBox="0 0 15 14" fill="none" xmlns="http://www.w3.org/2000/svg">
<path d="M8.75 0.25C9.15625 0.25 9.5 0.59375 9.5 1C9.5 1.4375 9.15625 1.75 8.75 1.75H1.25C0.8125 1.75 0.5 1.4375 0.5 1C0.5 0.59375 0.8125 0.25 1.25 0.25H8.75ZM13.75 4.25C14.1562 4.25 14.5 4.59375 14.5 5C14.5 5.4375 14.1562 5.75 13.75 5.75H1.25C0.8125 5.75 0.5 5.4375 0.5 5C0.5 4.59375 0.8125 4.25 1.25 4.25H13.75ZM0.5 9C0.5 8.59375 0.8125 8.25 1.25 8.25H8.75C9.15625 8.25 9.5 8.59375 9.5 9C9.5 9.4375 9.15625 9.75 8.75 9.75H1.25C0.8125 9.75 0.5 9.4375 0.5 9ZM13.75 12.25C14.1562 12.25 14.5 12.5938 14.5 13C14.5 13.4375 14.1562 13.75 13.75 13.75H1.25C0.8125 13.75 0.5 13.4375 0.5 13C0.5 12.5938 0.8125 12.25 1.25 12.25H13.75Z" fill="#C4D7E8"/>
</svg>
