<svg width="15" height="13" viewBox="0 0 15 13" fill="none" xmlns="http://www.w3.org/2000/svg">
<path d="M0 1.50136C0 1.08613 0.319407 0.734779 0.766576 0.734779H13.5428C13.9581 0.734779 14.3094 1.08613 14.3094 1.50136C14.3094 1.94852 13.9581 2.26793 13.5428 2.26793H0.766576C0.319407 2.26793 0 1.94852 0 1.50136ZM0 6.61186C0 6.19664 0.319407 5.84529 0.766576 5.84529H9.45444C9.86967 5.84529 10.221 6.19664 10.221 6.61186C10.221 7.05903 9.86967 7.37844 9.45444 7.37844H0.766576C0.319407 7.37844 0 7.05903 0 6.61186ZM5.36603 12.4889H0.766576C0.319407 12.4889 0 12.1695 0 11.7224C0 11.3071 0.319407 10.9558 0.766576 10.9558H5.36603C5.78126 10.9558 6.13261 11.3071 6.13261 11.7224C6.13261 12.1695 5.78126 12.4889 5.36603 12.4889Z" fill="white"/>
</svg>
